<?xml version="1.0" encoding="UTF-8" standalone="no"?>
<!DOCTYPE svg PUBLIC "-//W3C//DTD SVG 1.1//EN" "http://www.w3.org/Graphics/SVG/1.1/DTD/svg11.dtd">
<svg width="100%" height="100%" viewBox="0 0 2000 2000" version="1.1" xmlns="http://www.w3.org/2000/svg" xmlns:xlink="http://www.w3.org/1999/xlink" xml:space="preserve" xmlns:serif="http://www.serif.com/" style="fill-rule:evenodd;clip-rule:evenodd;stroke-linejoin:round;stroke-miterlimit:2;">
    <g transform="matrix(1,0,0,1,-250,-250.025)">
        <path d="M2192.66,850.025C2045.8,850.025 1916.66,977.088 1916.66,1116.9L1916.66,1383.09C1916.66,1522.89 2045.8,1650.03 2192.66,1650.03L2250,1650.03L2250,1920.83C2250,2122.49 2141.26,2250.03 1939.66,2250.03L602.75,2250.03C401.125,2250.03 250,2122.5 250,1920.83L250,1650.03L349.738,1650.03C496.6,1650.03 583.338,1522.9 583.338,1383.09L583.338,1116.89C583.338,977.088 496.6,850.025 349.738,850.025L250,850.025L250,579.15C250,377.487 401.125,250.025 602.738,250.025L1939.66,250.025C2141.26,250.025 2250,377.5 2250,579.15L2250,850.025L2192.66,850.025ZM1783.34,1584.9L1783.34,1115.08C1783.34,858.213 1596.86,650.013 1340.54,650.013L1201.8,650.013C945.538,650.013 716.675,858.213 716.675,1115.08L716.675,1584.88C716.675,1841.81 945.538,2050.01 1201.8,2050.01L1340.54,2050.01C1596.86,2050.01 1783.34,1841.81 1783.34,1584.89L1783.34,1584.9ZM1716.66,1125.61L1716.66,1574.41C1716.66,1800.28 1538.86,1983.34 1319.54,1983.34L1180.46,1983.34C961.137,1983.34 783.338,1800.28 783.338,1574.41L783.338,1125.61C783.338,899.738 961.138,716.675 1180.46,716.675L1319.54,716.675C1538.86,716.675 1716.66,899.737 1716.66,1125.61ZM1583.34,1383.08L1583.34,1116.95C1583.34,977.075 1458.54,850.013 1311.6,850.013L1230.8,850.013C1083.86,850.013 916.675,977.075 916.675,1116.94L916.675,1383.06C916.675,1522.94 1083.86,1650.01 1230.8,1650.01L1311.6,1650.01C1458.54,1650.01 1583.34,1522.94 1583.34,1383.08ZM1276.04,1516.66C1276.04,1516.66 1308.64,1518.34 1308.64,1550.66C1308.64,1582.8 1276.04,1583.34 1276.04,1583.34L1268.58,1583.34C1130.04,1583.34 983.313,1493.8 983.313,1351.4L983.313,1251.46C983.313,1251.46 983.038,1214.86 1016.38,1214.86C1049.84,1214.86 1049.97,1251.46 1049.97,1251.46L1049.97,1351.4C1049.97,1457.2 1166.64,1516.66 1268.58,1516.66L1276.04,1516.66Z" style="fill:white;"/>
    </g>
</svg>
