<?xml version="1.0" encoding="UTF-8" standalone="no"?>
<!DOCTYPE svg PUBLIC "-//W3C//DTD SVG 1.1//EN" "http://www.w3.org/Graphics/SVG/1.1/DTD/svg11.dtd">
<svg width="100%" height="100%" viewBox="0 0 499 76" version="1.1" xmlns="http://www.w3.org/2000/svg" xmlns:xlink="http://www.w3.org/1999/xlink" xml:space="preserve" xmlns:serif="http://www.serif.com/" style="fill-rule:evenodd;clip-rule:evenodd;stroke-linejoin:round;stroke-miterlimit:2;">
    <g transform="matrix(1,0,0,1,-171.5,-22.75)">
        <g>
            <path d="M544.642,34.703C542.008,37.302 538.064,38.428 532.873,38.428C527.697,38.428 523.646,37.302 521.089,34.703C518.454,32.198 517.253,28.346 517.253,23.384L517.253,22.75L525.679,22.75L525.679,23.384C525.679,26.047 526.265,27.759 527.25,28.695L527.281,28.726C528.283,29.757 530.131,30.264 532.858,30.264C535.584,30.264 537.34,29.757 538.342,28.726L538.372,28.695C539.389,27.759 540.052,26.031 540.052,23.384L540.052,22.75L548.478,22.75L548.478,23.384C548.478,28.362 547.168,32.214 544.642,34.703Z" style="fill:white;fill-rule:nonzero;"/>
            <path d="M489.602,84.779C490.418,83.654 490.973,82.243 491.358,80.372L491.481,79.849L501.279,79.849L501.171,80.579C500.678,83.781 499.769,86.523 498.321,88.742C496.904,91.041 495.163,92.848 493.006,94.211C490.865,95.575 488.431,96.51 485.72,97.128C482.901,97.746 479.897,97.952 476.616,97.952C472.534,97.952 468.929,97.54 465.71,96.605C462.475,95.781 459.625,94.211 457.376,92.103C455.127,89.979 453.402,87.141 452.185,83.622C450.968,80.182 450.367,75.855 450.367,70.734C450.367,65.503 450.952,61.065 452.169,57.53C453.371,54.01 455.096,51.078 457.345,48.858L457.361,48.843C459.594,46.75 462.352,45.181 465.586,44.245L465.602,44.245C468.806,43.421 472.411,42.914 476.4,42.914C483.995,42.914 490.064,44.88 494.547,48.858C498.953,52.885 501.155,58.956 501.155,66.993L501.155,74.428L460.241,74.428C460.303,77.345 460.765,79.77 461.474,81.577C462.228,83.511 463.353,85.049 464.739,86.19C466.126,87.347 467.805,88.108 469.792,88.504C471.825,88.901 474.059,89.107 476.585,89.107C478.542,89.107 480.282,89.012 482.008,88.711L482.038,88.711C483.625,88.504 485.042,88.029 486.367,87.347L486.383,87.332L486.398,87.332C487.661,86.777 488.662,85.937 489.602,84.779ZM465.124,54.629C463.738,55.675 462.613,57.117 461.766,59.051C460.981,60.843 460.503,63.094 460.349,65.979L491.127,65.979C491.081,63.284 490.696,61.128 490.003,59.337C489.248,57.387 488.308,55.96 487.029,54.819C485.736,53.757 484.241,52.996 482.454,52.504C480.621,52.108 478.588,51.807 476.385,51.807C474.059,51.807 472.026,52.013 470.1,52.409C468.221,52.79 466.526,53.567 465.124,54.629Z" style="fill:white;"/>
            <path d="M570.598,79.31C570.783,77.202 570.984,74.491 570.984,71.067L570.984,44.467L612.237,44.467L612.237,96.462L602.332,96.462L602.332,53.344L580.596,53.344L580.596,72.288C580.596,80.452 579.41,86.571 577.161,90.47C574.85,94.56 571.076,96.462 565.977,96.462L563.79,96.462L563.79,87.078L564.406,87.078C565.638,87.078 566.609,86.872 567.364,86.444L567.394,86.428L567.41,86.412C568.118,86.095 568.827,85.318 569.382,84.177C569.921,83.051 570.306,81.514 570.598,79.31Z" style="fill:white;fill-rule:nonzero;"/>
            <path d="M434.454,79.168C434.069,81.229 433.407,82.861 432.59,84.098C431.651,85.445 430.634,86.396 429.432,87.157C428.123,87.918 426.721,88.409 425.104,88.695C423.378,88.996 421.638,89.091 419.681,89.091C417.047,89.091 414.736,88.885 412.718,88.394C410.639,87.902 408.975,87.046 407.697,85.731L407.681,85.715C406.295,84.383 405.263,82.56 404.493,80.198C403.738,77.852 403.337,74.682 403.337,70.766C403.337,66.756 403.722,63.569 404.493,61.017C405.263,58.544 406.295,56.626 407.681,55.31L407.697,55.294C408.975,53.979 410.639,53.107 412.718,52.631C414.736,52.14 417.063,51.839 419.681,51.839C421.499,51.839 423.24,52.029 424.811,52.235C426.321,52.536 427.722,53.012 429.032,53.773C430.233,54.533 431.265,55.501 432.205,56.753C433.037,57.989 433.699,59.527 434.069,61.477L434.161,61.984L444.082,61.984L443.943,61.239C443.343,57.847 442.434,54.914 441.001,52.584C439.584,50.285 437.843,48.399 435.81,46.925L435.794,46.909C433.761,45.545 431.312,44.499 428.6,43.881C425.797,43.263 422.885,42.961 419.697,42.961C415.599,42.961 412.01,43.469 408.806,44.293L408.79,44.293C405.555,45.228 402.706,46.798 400.457,48.89L400.441,48.906C398.192,51.125 396.467,54.058 395.265,57.577C394.048,61.112 393.463,65.551 393.463,70.782C393.463,75.902 394.064,80.23 395.265,83.67C396.467,87.189 398.208,90.026 400.457,92.151C402.706,94.259 405.555,95.828 408.79,96.653C412.01,97.588 415.615,98 419.697,98C422.993,98 425.997,97.699 428.801,97.081C431.527,96.462 433.961,95.416 436.102,93.942C438.259,92.468 439.984,90.581 441.417,88.172C442.85,85.841 443.758,82.909 444.267,79.406L444.375,78.676L434.577,78.676L434.454,79.168Z" style="fill:white;fill-rule:nonzero;"/>
            <path d="M660.33,79.168L660.422,78.645L660.422,78.676L670.25,78.676L670.142,79.406C669.634,82.909 668.725,85.841 667.292,88.172C665.86,90.581 664.134,92.468 661.978,93.942C659.837,95.416 657.403,96.462 654.676,97.081C651.872,97.699 648.869,98 645.572,98C641.49,98 637.885,97.588 634.666,96.653C631.431,95.828 628.581,94.259 626.332,92.151C624.083,90.026 622.358,87.189 621.141,83.67C619.939,80.23 619.338,75.902 619.338,70.782C619.338,65.551 619.924,61.112 621.141,57.577C622.342,54.058 624.067,51.125 626.316,48.906L626.332,48.89C628.581,46.798 631.431,45.228 634.666,44.293L634.681,44.293C637.885,43.469 641.474,42.962 645.572,42.962C648.761,42.962 651.672,43.263 654.476,43.881C657.202,44.499 659.636,45.545 661.67,46.909L661.685,46.925C663.718,48.399 665.459,50.285 666.876,52.584C668.309,54.914 669.218,57.847 669.819,61.239L669.957,61.984L660.037,61.984L659.944,61.477C659.575,59.527 658.912,57.989 658.08,56.753C657.141,55.501 656.109,54.533 654.907,53.773C653.598,53.012 652.196,52.536 650.686,52.235C649.115,52.029 647.374,51.839 645.557,51.839C642.938,51.839 640.612,52.14 638.594,52.631C636.514,53.107 634.85,53.979 633.572,55.294L633.557,55.31C632.17,56.626 631.138,58.544 630.368,61.017C629.598,63.569 629.213,66.756 629.213,70.766C629.213,74.682 629.613,77.852 630.368,80.198C631.138,82.56 632.17,84.383 633.557,85.715L633.572,85.731C634.85,87.046 636.514,87.902 638.594,88.394C640.612,88.885 642.923,89.091 645.557,89.091C647.513,89.091 649.254,88.996 650.979,88.695C652.597,88.409 653.998,87.918 655.308,87.157C656.509,86.396 657.526,85.445 658.466,84.098C659.282,82.861 659.944,81.229 660.33,79.168Z" style="fill:white;fill-rule:nonzero;"/>
            <path d="M378.782,47.321C374.7,44.372 369.031,42.946 361.961,42.946C358.572,42.946 355.475,43.247 352.857,43.881C350.13,44.499 347.789,45.545 345.848,46.925L345.832,46.94C343.876,48.43 342.335,50.317 341.118,52.631C339.886,54.962 339.085,57.878 338.684,61.286L338.607,62L348.22,62L348.297,61.461C348.59,59.479 349.052,57.942 349.791,56.721L349.822,56.689C350.469,55.453 351.285,54.518 352.379,53.773C353.473,53.028 354.767,52.536 356.369,52.251C357.925,52.045 359.866,51.855 361.991,51.855C366.875,51.855 370.156,52.758 372.174,54.264C374.13,55.722 375.178,58.227 375.178,61.968L375.178,65.551C374.032,65.537 372.982,65.46 371.986,65.388L371.604,65.361L371.542,65.361C370.294,65.361 369.031,65.265 367.753,65.154L367.691,65.154C367.029,65.154 366.382,65.138 365.688,65.107L365.627,65.107C364.918,65.075 364.163,65.059 363.362,65.059C362.623,65.059 361.868,65.043 361.052,65.012L360.913,65.012C360.05,64.98 359.126,64.964 358.14,64.964C353.858,64.964 350.33,65.471 347.588,66.423L347.573,66.423C344.862,67.453 342.705,68.705 341.149,70.322C339.501,71.923 338.453,73.73 337.837,75.649C337.221,77.551 337.021,79.453 337.021,81.228C337.021,84.209 337.421,86.856 338.453,89.012C339.378,91.12 340.718,92.927 342.489,94.211C344.153,95.591 346.202,96.542 348.528,97.16C350.869,97.794 353.396,98 356.169,98C360.374,98 364.225,97.271 367.676,95.606C371.018,93.989 373.529,91.469 375.178,88.092L375.178,96.478L385.083,96.478L385.083,61.936C385.067,55.294 382.941,50.301 378.782,47.321ZM375.162,78.042C374.977,80.404 374.392,82.306 373.499,83.701C372.559,85.144 371.357,86.285 369.894,87.03C368.369,87.807 366.659,88.394 364.749,88.695C362.808,88.996 360.975,89.091 359.018,89.091C354.705,89.091 351.593,88.489 349.668,87.347C347.866,86.285 346.926,84.32 346.926,81.102C346.926,80.024 347.018,78.993 347.373,78.09L347.403,78.026C347.65,77.155 348.251,76.251 349.252,75.522L349.283,75.49C350.161,74.777 351.609,74.19 353.565,73.683C355.491,73.287 358.202,72.985 361.514,72.985C362.454,72.985 363.424,73.001 364.456,73.033L364.595,73.033C365.673,73.065 366.813,73.081 367.999,73.081C370.202,73.176 372.636,73.271 375.178,73.366L375.178,78.042L375.162,78.042Z" style="fill:white;"/>
            <path d="M263.28,70.195C266.838,70.655 269.734,71.67 271.844,73.429C273.986,75.411 275.11,78.343 275.095,82.338C275.095,84.367 274.679,86.158 274.063,87.839C273.431,89.567 272.384,91.073 270.936,92.357C269.503,93.625 267.762,94.687 265.713,95.416L265.698,95.416C263.541,96.161 261.108,96.462 258.304,96.462L229.498,96.462L229.498,44.467L256.147,44.467C259.351,44.467 262.093,44.88 264.327,45.609L264.358,45.609C266.576,46.433 268.332,47.384 269.78,48.668C271.213,49.952 272.276,51.347 272.907,52.98C273.524,54.565 273.832,56.166 273.832,57.878C273.832,61.635 272.815,64.663 270.889,66.644L270.874,66.66C268.995,68.499 266.468,69.641 263.28,70.021L263.28,70.195ZM255.47,53.344L239.418,53.344L239.418,65.963L257.256,65.963C259.937,65.963 261.678,65.281 262.586,64.092C263.495,62.777 264.034,61.286 264.034,59.4C264.034,58.465 263.865,57.625 263.665,56.816C263.511,56.198 263.126,55.691 262.556,55.104C261.97,54.597 261.108,54.216 259.937,53.82C258.812,53.535 257.287,53.344 255.47,53.344ZM256.348,87.585C259.151,87.585 261.308,87.094 262.956,86.143C264.481,85.271 265.298,83.686 265.298,81.213C265.298,79.215 264.743,77.646 263.665,76.346C262.663,75.157 260.553,74.444 257.133,74.444L239.418,74.444L239.418,87.585L256.348,87.585Z" style="fill:white;"/>
            <path d="M292.764,79.453L292.764,44.467L282.843,44.467L282.843,96.462L288.666,96.462L319.136,61.857L319.136,96.462L329.041,96.462L329.041,44.467L323.219,44.467L292.764,79.453Z" style="fill:white;fill-rule:nonzero;"/>
            <path d="M196.471,42.946C203.541,42.946 209.21,44.372 213.292,47.321C217.436,50.301 219.562,55.294 219.562,61.936L219.562,96.462L209.657,96.462L209.657,88.077C208.009,91.453 205.513,93.974 202.155,95.591C198.704,97.255 194.853,97.984 190.648,97.984C187.875,97.984 185.349,97.778 183.007,97.144C180.681,96.526 178.632,95.575 176.969,94.196C175.197,92.911 173.857,91.104 172.933,88.996C171.901,86.84 171.5,84.193 171.5,81.213C171.5,79.437 171.7,77.535 172.316,75.633C172.933,73.715 173.98,71.907 175.628,70.306C177.2,68.705 179.356,67.453 182.037,66.423L182.052,66.423C184.794,65.471 188.322,64.964 192.604,64.964C193.59,64.964 194.514,64.98 195.377,65.012L195.516,65.012C196.332,65.043 197.087,65.059 197.826,65.059C198.627,65.059 199.382,65.075 200.091,65.107L200.152,65.107C200.845,65.138 201.492,65.154 202.155,65.154L202.216,65.154C203.51,65.265 204.774,65.361 206.021,65.361L206.083,65.361L206.466,65.388C207.461,65.46 208.511,65.537 209.657,65.551L209.657,61.936C209.657,58.195 208.609,55.691 206.653,54.232C204.635,52.726 201.354,51.823 196.471,51.823C194.345,51.823 192.404,52.013 190.848,52.219C189.231,52.504 187.952,52.996 186.858,53.741C185.765,54.486 184.948,55.421 184.301,56.658L184.286,56.673L184.286,56.705C183.562,57.926 183.084,59.464 182.791,61.445L182.714,61.984L173.102,61.984L173.179,61.271C173.58,57.862 174.381,54.946 175.613,52.615C176.83,50.301 178.37,48.415 180.327,46.925L180.342,46.909C182.283,45.53 184.625,44.499 187.367,43.881C189.985,43.247 193.082,42.946 196.471,42.946ZM207.993,83.701C208.887,82.306 209.457,80.404 209.657,78.042L209.672,78.042L209.672,73.366C207.131,73.271 204.681,73.176 202.494,73.081C201.308,73.081 200.168,73.065 199.089,73.033L198.951,73.033C197.919,73.001 196.948,72.985 196.008,72.985C192.697,72.985 189.985,73.287 188.06,73.683C186.103,74.19 184.655,74.777 183.777,75.49L183.747,75.522C182.745,76.251 182.144,77.154 181.898,78.026L181.867,78.09C181.513,78.993 181.42,80.024 181.42,81.102C181.42,84.32 182.36,86.285 184.162,87.347C186.088,88.489 189.2,89.091 193.513,89.091C195.469,89.091 197.302,88.996 199.243,88.695C201.154,88.394 202.863,87.807 204.389,87.03C205.852,86.285 207.069,85.144 207.993,83.701Z" style="fill:white;"/>
            <path d="M519.687,79.453L519.687,44.467L509.782,44.467L509.782,96.462L515.589,96.462L546.059,61.857L546.059,96.462L555.965,96.462L555.965,44.467L550.142,44.467L519.687,79.453Z" style="fill:white;fill-rule:nonzero;"/>
        </g>
    </g>
</svg>
